# xmcd CD database file
#
# Track frame offsets:
#	150
#	20055
#	40017
#	59742
#	79282
#	100612
#	123255
#	139597
#	156420
#
# Disc length: 2335 seconds
#
# Revision: 0
# Processed by: cddbd v1.5PL3 Copyright (c) Steve Scherf et al.
# Submitted via: CDex 1.51
#
DISCID=75091d09
DTITLE=稲垣潤一 - ノー・ストリングス
DYEAR=1985
DGENRE=JPop
TTITLE0=Jの彼女
TTITLE1=The Rule of Love - Baby, take a chance on me -
TTITLE2=Mr. Blue
TTITLE3=ブルージン・ピエロ
TTITLE4=愛は腕の中で
TTITLE5=JAJAUMA
TTITLE6=楽園伝説
TTITLE7=時を止めた涙
TTITLE8=Blue Flame
EXTD=YEAR: 1985
EXTT0=
EXTT1=
EXTT2=
EXTT3=
EXTT4=
EXTT5=
EXTT6=
EXTT7=
EXTT8=
PLAYORDER=
